<svg id="Слой_1" xmlns="http://www.w3.org/2000/svg" xmlns:xlink="http://www.w3.org/1999/xlink" width="591.1" height="484.6" viewBox="0 0 591.1 484.6"><style>.st2{clip-path:url(#SVGID_2_);fill:#141515}</style><defs><path id="SVGID_1_" d="M0 0h591.1v484.6H0z"/></defs><clipPath id="SVGID_2_"><use xlink:href="#SVGID_1_" overflow="visible"/></clipPath><path d="M575.2 325.9c55.5 63.7-125.2 153-279.6 153-154.4 0-335.3-89.4-279.6-153C65.2 269.7 293.7 7.8 295.5 5.7h.1c1.9 2.1 220.9 252.9 279.6 320.2" clip-path="url(#SVGID_2_)" fill="#fab900"/><path d="M575.2 325.9c55.5 63.7-125.2 153-279.6 153-154.4 0-335.3-89.4-279.6-153C65.2 269.7 293.7 7.8 295.5 5.7h.1c1.9 2.1 220.9 252.9 279.6 320.2z" clip-path="url(#SVGID_2_)" fill="none" stroke="#000" stroke-width="11.339" stroke-miterlimit="22.926"/><path class="st2" d="M118.5 275.4h96.7v27.5h-66.8v8.7h52.3v26.5h-52.3v27.6h-29.9zM269.4 289.5c8.8 0 16.5.8 23 2.3 6.5 1.5 12.2 4.1 17 7.6 4.8 3.5 8.3 8.3 10.5 14.3 2.2 6 3 13.3 2.3 21.8h-76.3c.4 2.3 2.5 4.2 6.3 5.6 3.8 1.5 9.4 2.2 17 2.2 6.6 0 13.2-.4 19.7-1.3s11.5-1.7 14.8-2.6l4.9-1.3 12.8 20.8c-.3.2-.7.4-1.4.7-.7.3-2.4.8-5.2 1.6-2.8.8-5.9 1.5-9.4 2.1-3.5.6-8.4 1.1-14.6 1.6-6.3.5-13.1.7-20.5.7-8.7 0-16.3-.6-22.8-1.8-6.5-1.2-11.7-2.9-15.8-5-4.1-2.1-7.3-4.8-9.8-8.1-2.5-3.3-4.2-6.7-5.1-10.4-.9-3.7-1.4-8-1.4-12.8 0-12 4.6-21.3 13.7-28 8.9-6.6 22.4-10 40.3-10m.3 23c-4.7 0-8.7.3-12.1 1-3.3.7-5.8 1.6-7.3 2.6-1.5 1.1-2.7 2.1-3.3 3.1-.7 1-1 2.1-1 3.1h46c0-2.8-1.7-5.2-5.1-7.1-3.5-1.7-9.2-2.7-17.2-2.7M382.3 289.5c8.8 0 16.5.8 23 2.3 6.5 1.5 12.2 4.1 17 7.6 4.8 3.5 8.3 8.3 10.5 14.3 2.2 6 3 13.3 2.3 21.8h-76.3c.4 2.3 2.5 4.2 6.3 5.6 3.8 1.5 9.4 2.2 17 2.2 6.6 0 13.2-.4 19.7-1.3s11.5-1.7 14.8-2.6l4.9-1.3 12.8 20.8c-.3.2-.7.4-1.4.7-.7.3-2.4.8-5.2 1.6-2.8.8-5.9 1.5-9.4 2.1-3.5.6-8.4 1.1-14.6 1.6-6.3.5-13.1.7-20.6.7-8.7 0-16.3-.6-22.8-1.8-6.5-1.2-11.7-2.9-15.8-5-4.1-2.1-7.3-4.8-9.8-8.1-2.5-3.3-4.2-6.7-5.1-10.4-.9-3.7-1.4-8-1.4-12.8 0-12 4.6-21.3 13.7-28 9-6.6 22.5-10 40.4-10m.3 23c-4.7 0-8.7.3-12.1 1-3.3.7-5.8 1.6-7.3 2.6-1.5 1.1-2.7 2.1-3.3 3.1-.7 1-1 2.1-1 3.1h46c0-2.8-1.7-5.2-5.1-7.1-3.5-1.7-9.2-2.7-17.2-2.7M442.7 357.7v-81.9h29.9v89.9h-29.9z"/></svg>